<?xml version="1.0" encoding="UTF-8"?>
<svg id="Camada_2" data-name="Camada 2" xmlns="http://www.w3.org/2000/svg" viewBox="0 0 455.2 216.96">
  <defs>
    <style>
      .cls-1 {
        fill: #f4370b;
      }

      .cls-1, .cls-2 {
        stroke-width: 0px;
      }

      .cls-2 {
        fill: #f4f4f4;
      }
    </style>
  </defs>
  <g id="Camada_1-2" data-name="Camada 1">
    <g>
      <g>
        <path class="cls-1" d="m118.95,0h-20.95c-4.62,0-8.36,3.74-8.36,8.36v44.19c0,3.86-4.67,5.8-7.4,3.06l-31.25-31.25c-3.26-3.26-8.56-3.26-11.82,0l-14.81,14.81c-3.26,3.26-3.26,8.56,0,11.82l31.25,31.25c2.73,2.73.8,7.4-3.06,7.4H8.36c-4.62,0-8.36,3.74-8.36,8.36v20.95c0,4.62,3.74,8.36,8.36,8.36h44.19c3.86,0,5.8,4.67,3.06,7.4l-31.25,31.25c-3.26,3.26-3.26,8.56,0,11.82l14.81,14.81c3.26,3.26,8.56,3.26,11.82,0l31.25-31.25c2.73-2.73,7.4-.8,7.4,3.06v44.19c0,4.62,3.74,8.36,8.36,8.36h20.95c4.62,0,8.36-3.74,8.36-8.36V8.36c0-4.62-3.74-8.36-8.36-8.36Z"/>
        <path class="cls-1" d="m196.9,99.17c-2.29-1.31-2.68-4.21-.73-5.93,9.72-8.55,15.78-20.55,15.78-33.85h0c0-25.95-23.02-50.82-51.43-50.82h-5.48c-4.55,0-8.24,3.37-8.24,7.53v185.61c0,4.16,3.69,7.53,8.24,7.53h8.55c34.75,0,62.92-29.57,62.92-61.32h0c0-20.57-11.83-38.6-29.61-48.76Z"/>
      </g>
      <g>
        <g>
          <path class="cls-2" d="m287.3,86.35c4.58,0,8.28-1.13,11.01-3.35,2.77-2.26,4.18-5.34,4.18-9.15v-3.41c0-2.22-.7-4.25-2.09-6.04-1.11-1.43-2.53-2.56-4.21-3.36.92-.76,1.67-1.67,2.24-2.71.78-1.42,1.18-2.93,1.18-4.5v-3.28c0-3.55-1.37-6.42-4.06-8.53-2.64-2.07-6.16-3.11-10.47-3.11h-22.84c-.41,0-.75.34-.75.75v39.77c0,2.04.67,3.73,2,5,1.32,1.27,3.04,1.92,5.11,1.92h18.71Zm1.74-32.58c0,1.3-.36,2.29-1.1,3.05-.74.75-1.68,1.12-2.88,1.12h-13.03v-9.66h12.7c1.35,0,2.43.31,3.21.92.73.58,1.09,1.34,1.09,2.33v2.23Zm2.89,19.56c0,1.16-.41,2.02-1.27,2.64-.91.67-2.27,1.01-4.02,1.01h-14.61v-10.05h15.59c1.34,0,2.41.34,3.19,1,.75.64,1.12,1.47,1.12,2.52v2.89Z"/>
          <path class="cls-2" d="m333.11,86.87c3.35,0,6.37-.73,8.96-2.16,2.61-1.44,4.65-3.5,6.07-6.11,1.41-2.59,2.12-5.63,2.12-9.02v-29.93c0-.41-.34-.75-.75-.75h-9.06c-.41,0-.75.34-.75.75v29.66c0,2.43-.63,4.41-1.86,5.89-1.22,1.45-2.77,2.16-4.74,2.16h-6.96c-1.93,0-3.44-.71-4.64-2.16-1.21-1.47-1.83-3.45-1.83-5.89v-29.66c0-.41-.34-.75-.75-.75h-9.06c-.41,0-.75.34-.75.75v29.93c0,3.39.71,6.43,2.12,9.02,1.42,2.61,3.44,4.66,6,6.1,2.55,1.44,5.55,2.17,8.9,2.17h6.96Z"/>
          <path class="cls-2" d="m405.89,38.91h-8.07c-.28,0-.53.15-.66.39l-14.05,26.09-14.36-26.1c-.13-.24-.38-.39-.66-.39h-8.07c-.41,0-.75.34-.75.75v45.94c0,.41.34.75.75.75h8.86c.41,0,.75-.34.75-.75v-26.21l10.28,18.25c.13.24.38.38.65.38h2.49c1.04,0,1.97-.3,2.78-.9.77-.57,1.5-1.48,2.21-2.77l8.24-14.91v26.17c0,.41.34.75.75.75h8.86c.41,0,.75-.34.75-.75v-45.94c0-.41-.34-.75-.75-.75Z"/>
          <path class="cls-2" d="m453.39,45.21c-1.21-2.02-2.92-3.59-5.1-4.68-2.15-1.08-4.65-1.62-7.42-1.62h-24.22c-.41,0-.75.34-.75.75v45.94c0,.41.34.75.75.75h9.06c.41,0,.75-.34.75-.75v-13.75h13.88c2.91,0,5.51-.57,7.72-1.69,2.24-1.13,4.01-2.75,5.26-4.81,1.25-2.06,1.88-4.45,1.88-7.12v-6.1c0-2.57-.61-4.9-1.81-6.92Zm-26.93,3.07h14.28c1.2,0,2.12.36,2.84,1.11.72.76,1.07,1.78,1.07,3.13v5.32c0,1.43-.4,2.53-1.23,3.38-.82.84-1.87,1.25-3.21,1.25h-13.75v-14.18Z"/>
          <path class="cls-2" d="m310.56,104.79h-8.07c-.28,0-.53.15-.66.39l-14.05,26.09-14.36-26.1c-.13-.24-.38-.39-.66-.39h-8.07c-.41,0-.75.34-.75.75v45.94c0,.41.34.75.75.75h8.86c.41,0,.75-.34.75-.75v-26.21l10.28,18.25c.13.24.38.38.65.38h2.49c1.04,0,1.97-.3,2.78-.9.77-.57,1.5-1.48,2.21-2.77l8.24-14.91v26.17c0,.41.34.75.75.75h8.86c.41,0,.75-.34.75-.75v-45.94c0-.41-.34-.75-.75-.75Z"/>
          <path class="cls-2" d="m335.39,91.45h-9.84c-.27,0-.53.15-.66.39l-3.43,8.81c-.13.23-.12.51.01.74.13.23.38.37.64.37h8.53c.25,0,.49-.13.63-.34l4.74-8.81c.15-.23.16-.53.03-.77s-.38-.39-.66-.39Z"/>
          <rect class="cls-2" x="321.23" y="104.79" width="10.56" height="47.44" rx=".75" ry=".75"/>
          <path class="cls-2" d="m373.93,106.84c-2.74-1.36-5.95-2.05-9.55-2.05h-21.92c-.41,0-.75.34-.75.75v39.77c0,2.04.67,3.73,2,5,1.32,1.27,3.04,1.92,5.11,1.92h15.82c5.87,0,10.39-1.54,13.46-4.58,3.06-3.04,4.62-7.54,4.62-13.36v-12.86c0-3.28-.78-6.21-2.31-8.72-1.54-2.52-3.71-4.49-6.48-5.86Zm-21.67,7.46h11.85c2.45,0,4.37.67,5.85,2.06,1.47,1.37,2.19,3.16,2.19,5.46v12.07c0,2.95-.66,5.19-1.97,6.66-1.31,1.46-3.21,2.18-5.81,2.18h-12.11v-28.43Z"/>
          <rect class="cls-2" x="391.06" y="104.79" width="10.56" height="47.44" rx=".75" ry=".75"/>
          <path class="cls-2" d="m437.01,109.21c-1.12-2.93-3.3-4.42-6.48-4.42h-4.07c-.31,0-.59.19-.7.48l-17.98,45.94c-.09.23-.06.49.08.7s.37.33.62.33h9.45c.31,0,.59-.19.7-.48l3.89-10.21h16.16l3.82,10.21c.11.29.39.49.7.49h9.45c.25,0,.48-.12.62-.33.14-.21.17-.46.08-.7l-16.34-42Zm-1.32,23.21h-10.18l5.12-13.72,5.06,13.72Z"/>
        </g>
        <g>
          <path class="cls-2" d="m264.18,171.41h2.64l5.87,10.75,5.72-10.75h2.64v17.42h-2.86v-12.02l-4.11,7.62c-.23.4-.46.69-.67.86s-.46.26-.72.26h-.82l-4.85-8.74v12.02h-2.84v-17.42Z"/>
          <path class="cls-2" d="m299.25,188.83l-6.07-7.67-1.84,1.97v5.7h-2.91v-17.42h2.91v8.04l7.42-8.04h3.58l-7.19,7.67,7.64,9.76h-3.53Z"/>
          <path class="cls-2" d="m312.79,173.92h-5.53v-2.51h13.96v2.51h-5.53v14.91h-2.91v-14.91Z"/>
          <path class="cls-2" d="m338.86,188.26c-.39-.38-.58-.89-.58-1.52v-15.33h7.94c1.29,0,2.43.24,3.42.73.99.49,1.75,1.18,2.29,2.08.54.89.81,1.93.81,3.11v5.08c0,2.11-.54,3.71-1.63,4.79-1.09,1.09-2.68,1.63-4.79,1.63h-5.9c-.65,0-1.17-.19-1.56-.57Zm7.38-1.99c1.18,0,2.07-.34,2.68-1.01s.91-1.65.91-2.95v-4.88c0-1.03-.34-1.86-1.02-2.5-.68-.64-1.57-.96-2.66-.96h-4.95v12.29h5.05Z"/>
          <path class="cls-2" d="m359.75,171.41h2.91v17.42h-2.91v-17.42Z"/>
          <path class="cls-2" d="m372.73,188.22c-.94-.54-1.66-1.3-2.18-2.29-.51-.99-.77-2.13-.77-3.42v-4.78c0-1.29.26-2.43.78-3.42.52-.99,1.26-1.75,2.21-2.29s2.05-.81,3.3-.81h2.74c1.19,0,2.25.24,3.16.73.91.49,1.62,1.18,2.12,2.06.5.89.75,1.91.75,3.07h-2.86c0-1-.29-1.79-.87-2.4-.58-.61-1.34-.91-2.29-.91h-2.74c-1.01,0-1.83.37-2.45,1.11-.62.74-.93,1.72-.93,2.95v4.58c0,1.23.3,2.21.91,2.95s1.41,1.11,2.4,1.11h2.84c.96,0,1.75-.34,2.36-1.02.61-.68.92-1.55.92-2.61v-.85h-4.83v-2.54h7.69v3.38c0,1.21-.26,2.29-.77,3.22-.51.94-1.24,1.67-2.17,2.19-.93.52-2,.79-3.21.79h-2.84c-1.25,0-2.34-.27-3.27-.81Z"/>
          <path class="cls-2" d="m392,171.41h2.91v17.42h-2.91v-17.42Z"/>
          <path class="cls-2" d="m406.81,173.92h-5.53v-2.51h13.96v2.51h-5.53v14.91h-2.91v-14.91Z"/>
          <path class="cls-2" d="m428.99,184.53h-6.92l-1.62,4.31h-3.01l6.77-17.42h1.32c.9,0,1.52.44,1.87,1.32l6.22,16.1h-3.04l-1.59-4.31Zm-6.1-2.44h5.28l-2.61-7.07h-.02l-2.64,7.07Z"/>
          <path class="cls-2" d="m439.96,188.26c-.38-.38-.57-.89-.57-1.52v-15.33h2.91v14.88h9.46v2.54h-10.23c-.66,0-1.19-.19-1.57-.57Z"/>
        </g>
      </g>
    </g>
  </g>
</svg>