<svg width="20" height="30" viewBox="0 0 20 30" fill="none" xmlns="http://www.w3.org/2000/svg">
<g clip-path="url(#clip0_1571_698)">
<path d="M9.9729 14.4567C9.9729 11.9951 11.9434 10.0002 14.3729 10.0002H15.0093C15.0267 10.0008 15.0457 9.99963 15.0637 9.99963C17.7897 9.99963 20.0001 12.2393 20.0001 15C20.0001 17.7608 17.7897 19.9998 15.0637 19.9998C15.0457 19.9998 15.0267 19.9992 15.0087 19.9992L14.3729 19.9998C11.9434 19.9998 9.9729 18.0038 9.9729 15.5428V14.4567Z" fill="black"/>
<path d="M0 25.0007C0 22.2394 2.2104 19.9998 4.93642 19.9998L9.97283 20.0003V24.9492C9.97283 27.7392 7.71503 30 4.96069 30C2.23526 30 0 27.7615 0 25.0007Z" fill="black"/>
<path d="M9.9729 0.000585526V10.0002H15.0093C15.0267 9.99961 15.0457 10.0008 15.0637 10.0008C17.7897 10.0008 20.0001 7.76114 20.0001 5.00039C20.0001 2.23905 17.7897 0 15.0637 0C15.0457 0 15.0267 0.000585526 15.0087 0.000585526H9.9729Z" fill="#3E3E3E"/>
<path d="M0 4.99983C0 7.76117 2.2104 10.0002 4.93642 10.0002H9.97283V0.000610352H4.93584C2.2104 0.000610352 0 2.23908 0 4.99983Z" fill="black"/>
<path d="M0 15C0 17.7613 2.2104 20.0003 4.93642 20.0003H9.97283V10.0007H4.93584C2.2104 10.0007 0 12.2392 0 15Z" fill="#3E3E3E"/>
</g>
<defs>
<clipPath id="clip0_1571_698">
<rect width="20" height="30" fill="white"/>
</clipPath>
</defs>
</svg>
