<svg width="40" height="40" viewBox="0 0 40 40" fill="none" xmlns="http://www.w3.org/2000/svg">
<path fill-rule="evenodd" clip-rule="evenodd" d="M18.9374 21.6698C19.3167 21.7349 19.703 21.7676 20.0903 21.7675C21.2054 21.786 22.3004 21.5201 23.2277 21.0058C23.4874 20.8532 23.735 20.6869 23.9689 20.5077L24.3885 20.1822C25.7297 19.1243 26.6944 18.3625 26.5062 16.5136C26.495 16.391 26.5322 16.2688 26.6121 16.1653C26.7088 16.0436 26.8599 15.9588 27.0319 15.9295C27.204 15.9002 27.383 15.9288 27.5297 16.009C27.607 16.0514 27.6899 16.0864 27.7768 16.1132C27.8348 16.1317 27.8954 16.1437 27.9572 16.149C28.067 16.149 28.0631 16.1881 28.0827 16.175C28.1023 16.162 28.0827 16.1262 28.1337 16.0318L28.7847 14.4888C28.8519 14.3289 28.8668 14.157 28.8278 13.9908C28.8208 13.9673 28.8041 13.9466 28.7807 13.9322C28.7034 13.9074 28.6197 13.8995 28.5376 13.9094C28.2303 13.9421 27.9399 14.0446 27.6984 14.2056C27.6248 14.2521 27.5406 14.2856 27.4509 14.304C27.3612 14.3225 27.2679 14.3256 27.1768 14.313C27.0893 14.3005 27.0057 14.2737 26.9309 14.234C26.8562 14.1943 26.7917 14.1426 26.7413 14.082C26.6909 14.0213 26.6555 13.953 26.6374 13.8808C26.6193 13.8087 26.6186 13.7343 26.6356 13.662C27.114 11.3345 26.8983 9.82084 26.3062 8.79545C25.84 8.02211 25.0884 7.39257 24.161 6.99856C22.7618 7.92225 21.055 8.46759 19.2707 8.56107C17.8849 8.63281 16.5497 9.02027 15.4118 9.68087C14.7576 10.031 14.2569 10.547 13.9843 11.1522C13.7314 11.8265 13.7124 12.5462 13.9294 13.2291C13.9573 13.3268 13.9527 13.429 13.9163 13.5248C13.8798 13.6206 13.8128 13.7064 13.7223 13.7732C13.6319 13.8399 13.5213 13.8851 13.4024 13.9039C13.2836 13.9228 13.1608 13.9145 13.047 13.8801L12.5725 13.7369C12.0588 13.5871 11.6901 13.5123 11.5607 13.7206C11.4854 14.2642 11.5212 14.8145 11.6666 15.3482C11.7195 15.6303 11.8936 15.8871 12.1568 16.0709C12.2242 16.1012 12.2998 16.1169 12.3764 16.1164C12.5095 16.1144 12.6415 16.0969 12.7686 16.0644C12.8317 16.0459 12.8979 16.036 12.9647 16.0351C13.0517 16.0333 13.1383 16.0459 13.2195 16.0719C13.3007 16.098 13.375 16.1371 13.438 16.1869C13.501 16.2368 13.5515 16.2965 13.5867 16.3626C13.6219 16.4287 13.6411 16.4999 13.6431 16.5722C13.698 18.4602 14.7137 19.1763 15.9491 20.0683L16.4707 20.4491C17.1809 20.9965 18.023 21.4126 18.9413 21.6698H18.9374ZM20.0001 32.7799C20.6005 32.7799 21.1873 32.9277 21.6865 33.2045C22.1857 33.4814 22.5747 33.8749 22.8045 34.3353C23.0342 34.7957 23.0943 35.3023 22.9772 35.791C22.8601 36.2797 22.571 36.7287 22.1465 37.081C21.722 37.4334 21.1811 37.6734 20.5923 37.7706C20.0035 37.8678 19.3932 37.8179 18.8386 37.6272C18.2839 37.4365 17.8099 37.1136 17.4763 36.6992C17.1428 36.2849 16.9648 35.7978 16.9648 35.2995C16.9658 34.6315 17.2859 33.9911 17.855 33.5188C18.424 33.0465 19.1954 32.7808 20.0001 32.7799ZM24.863 21.3085L25.1179 21.6145C25.5101 22.0865 25.9454 22.6236 26.3532 23.0436C28.7807 24.2936 34.1142 24.6321 36.2005 25.5956C41.5104 28.0533 39.5731 34.0202 39.9575 38.3171C39.8398 39.3327 39.1457 39.9121 37.7849 40H36.3103L37.926 29.8209C37.9638 29.6488 37.9566 29.472 37.9051 29.3024C37.8536 29.1328 37.7588 28.9743 37.6273 28.8376C37.4957 28.701 37.3304 28.5893 37.1425 28.5102C36.9545 28.4311 36.7483 28.3863 36.5378 28.3789H20.6786C21.1766 25.3548 25.6395 25.3385 25.7493 23.9257C25.1843 23.3608 24.6605 22.7684 24.1806 22.1516L23.9963 21.9238C22.9404 22.585 21.6562 22.9468 20.3335 22.9557C18.7183 22.9108 17.1712 22.4049 15.953 21.5234C15.6711 22.319 15.2762 23.0839 14.7765 23.802C14.7378 23.8445 14.6915 23.8818 14.6392 23.9127C14.8236 25.1562 19.957 26.7447 20.2668 28.3919H3.72526C3.51765 28.4013 3.31478 28.4471 3.12999 28.5262C2.9452 28.6054 2.78266 28.716 2.65304 28.851C2.52342 28.986 2.42965 29.1421 2.37788 29.3093C2.32612 29.4765 2.31753 29.6508 2.35268 29.8209L3.9684 40H2.47817C1.11736 39.9121 0.423226 39.349 0.309498 38.3171C0.380088 33.7597 -1.70231 28.2649 4.06645 25.5956C6.18022 24.6191 11.6274 24.2936 14.0039 22.9915C14.3946 22.2921 14.7262 21.5709 14.9961 20.8333C13.6863 19.899 12.6 19.0885 12.3568 17.2037C12.0598 17.2012 11.7683 17.1362 11.5098 17.0149C11.2195 16.8573 10.97 16.6532 10.7761 16.4145C10.5821 16.1758 10.4476 15.9073 10.3803 15.6249C10.188 14.9258 10.1468 14.2038 10.2587 13.4927C10.2671 13.4471 10.2816 13.4023 10.3019 13.3593C10.5764 12.7082 10.9764 12.4706 11.4784 12.4315L11.3294 12.3501C11.1254 10.2473 11.7215 6.59817 8.97636 5.90806C14.1922 0.553223 20.1923 -2.35369 24.7061 2.39893C30.0592 2.63331 32.2514 9.61251 28.1415 12.6952L28.1219 12.8287C28.2279 12.8095 28.3353 12.7965 28.4435 12.7896C28.7761 12.7627 29.111 12.8158 29.4082 12.9426C29.573 13.0143 29.7189 13.1126 29.8374 13.2316C29.9559 13.3507 30.0446 13.4881 30.0984 13.636C30.2207 14.0103 30.2098 14.406 30.067 14.7753L29.3886 16.3736C29.3148 16.6259 29.1491 16.8533 28.9141 17.0246C28.6198 17.2018 28.2545 17.2776 27.8944 17.2362H27.8435C27.7611 19.0201 26.6983 19.8599 25.2865 20.9732L24.8708 21.2988L24.8473 21.3183L24.863 21.3085Z" fill="white"/>
</svg>
