<svg width="20" height="20" viewBox="0 0 20 20" fill="none" xmlns="http://www.w3.org/2000/svg">
<g clip-path="url(#clip0_1571_706)">
<mask id="mask0_1571_706" style="mask-type:luminance" maskUnits="userSpaceOnUse" x="0" y="0" width="20" height="20">
<path d="M0 0.0245361H19.9754V20H0V0.0245361Z" fill="white"/>
</mask>
<g mask="url(#mask0_1571_706)">
<path d="M19.5992 9.12274L10.8774 0.401657C10.758 0.282106 10.6163 0.187263 10.4602 0.122553C10.3041 0.0578436 10.1368 0.0245361 9.96787 0.0245361C9.79891 0.0245361 9.63161 0.0578436 9.47554 0.122553C9.31947 0.187263 9.17769 0.282106 9.0583 0.401657L7.247 2.21296L9.54395 4.50992C9.814 4.41821 10.1043 4.40389 10.3821 4.46858C10.6598 4.53328 10.914 4.67441 11.1157 4.87601C11.3185 5.0791 11.4601 5.33511 11.5244 5.61482C11.5887 5.89453 11.5731 6.18669 11.4794 6.45796L13.6931 8.67187C13.9643 8.57762 14.2566 8.56172 14.5365 8.62601C14.8163 8.6903 15.0724 8.83217 15.2753 9.03535C15.4174 9.17747 15.5302 9.3462 15.6071 9.5319C15.684 9.7176 15.7236 9.91663 15.7236 10.1176C15.7236 10.3186 15.684 10.5177 15.6071 10.7034C15.5302 10.8891 15.4174 11.0578 15.2753 11.1999C14.9881 11.487 14.5986 11.6483 14.1925 11.6483C13.7865 11.6483 13.397 11.487 13.1098 11.1999C12.896 10.9863 12.7503 10.7141 12.6911 10.4178C12.6318 10.1214 12.6616 9.81413 12.7768 9.5347L10.7116 7.47014V12.9043C10.9295 13.0119 11.1187 13.17 11.2635 13.3654C11.4082 13.5607 11.5043 13.7877 11.5438 14.0276C11.5833 14.2675 11.5651 14.5134 11.4907 14.7448C11.4163 14.9763 11.2878 15.1867 11.1159 15.3586C10.9738 15.5008 10.8051 15.6135 10.6194 15.6904C10.4337 15.7674 10.2346 15.807 10.0336 15.807C9.83262 15.807 9.63359 15.7674 9.44789 15.6904C9.26219 15.6135 9.09346 15.5008 8.95134 15.3586C8.80917 15.2165 8.69638 15.0478 8.61943 14.862C8.54249 14.6763 8.50288 14.4773 8.50288 14.2762C8.50288 14.0752 8.54249 13.8761 8.61943 13.6904C8.69638 13.5047 8.80917 13.336 8.95134 13.1938C9.09472 13.0501 9.26529 12.9364 9.45308 12.8593V7.37514C9.26527 7.29845 9.09468 7.185 8.95134 7.04144C8.73669 6.82651 8.59075 6.55263 8.53207 6.25459C8.47339 5.95655 8.50462 5.64779 8.62178 5.36753L6.357 3.10274L0.376997 9.08188C0.257477 9.20135 0.162666 9.34319 0.0979802 9.49932C0.033294 9.65544 0 9.82277 0 9.99177C0 10.1608 0.033294 10.3281 0.0979802 10.4842C0.162666 10.6403 0.257477 10.7822 0.376997 10.9017L9.09895 19.6238C9.34027 19.8649 9.66742 20.0003 10.0085 20.0003C10.3496 20.0003 10.6768 19.8649 10.9181 19.6238L19.5992 10.9425C19.8402 10.701 19.9755 10.3738 19.9755 10.0326C19.9755 9.69146 19.8402 9.36423 19.5992 9.12274Z" fill="#100F0D"/>
</g>
</g>
<defs>
<clipPath id="clip0_1571_706">
<rect width="20" height="20" fill="white"/>
</clipPath>
</defs>
</svg>
