<?xml version="1.0" encoding="UTF-8"?>
<svg id="Camada_2" data-name="Camada 2" xmlns="http://www.w3.org/2000/svg" viewBox="0 0 348.75 107.03">
  <defs>
    <style>
      .cls-1 {
        fill: #0d0e0e;
        stroke-width: 0px;
      }
    </style>
  </defs>
  <g id="Camada_1-2" data-name="Camada 1">
    <g id="PRETO">
      <g>
        <path class="cls-1" d="m70.59,107.03h-34.14C16.35,107.03,0,90.68,0,70.59v-34.14C0,16.35,16.35,0,36.45,0h34.14c20.1,0,36.45,16.35,36.45,36.45v34.14c0,20.1-16.35,36.45-36.45,36.45ZM36.45,11.24c-13.9,0-25.2,11.31-25.2,25.2v34.14c0,13.9,11.31,25.2,25.2,25.2h34.14c13.9,0,25.2-11.31,25.2-25.2v-34.14c0-13.9-11.31-25.2-25.2-25.2h-34.14Z"/>
        <g>
          <path class="cls-1" d="m148.03,20.18h-11.5c-2.92,0-4.39.98-4.39,2.92,0,1.84,1.47,2.75,4.42,2.75h2.78c8.56.13,12.83,3.96,12.82,11.47-.04,7.63-4.31,11.45-12.82,11.47l-11.61-.03c-2.77.02-4.17-1.3-4.19-3.96.02-2.98,1.41-4.48,4.16-4.5h11.58c2.85,0,4.29-.98,4.33-2.92,0-1.89-1.41-2.86-4.24-2.9h-2.78c-8.66.04-12.98-3.81-12.96-11.55-.06-7.57,4.21-11.35,12.82-11.35l11.47.03c2.87,0,4.3,1.41,4.3,4.24-.06,2.83-1.45,4.27-4.19,4.33Z"/>
          <path class="cls-1" d="m185.25,48.85c-2.92,0-4.39-1.45-4.39-4.36v-7.14l-14.25-.03-.03,7.17c0,2.91-1.43,4.36-4.3,4.36s-4.3-1.43-4.3-4.3v-19.78c0-8.79,4.3-13.19,12.9-13.19l14.28.03c2.87,0,4.3,1.41,4.3,4.24v28.64c0,2.91-1.41,4.36-4.21,4.36Zm-4.39-20.16v-8.51h-9.89c-2.92,0-4.39,1.47-4.39,4.42v4.1h14.28Z"/>
          <path class="cls-1" d="m231.15,11.58c8.6,0,12.9,4.4,12.9,13.19v19.78c0,2.87-1.43,4.3-4.3,4.3s-4.3-1.45-4.3-4.36v-19.9c0-2.94-1.46-4.42-4.39-4.42h-7.14l.06,24.37c0,2.87-1.43,4.3-4.3,4.3s-4.3-1.45-4.3-4.36v-19.9c0-2.94-1.45-4.42-4.36-4.42h-7.11v24.26c0,2.91-1.45,4.36-4.36,4.36s-4.24-1.45-4.24-4.36V15.85c0-2.83,1.46-4.27,4.39-4.33l31.45.06Z"/>
          <path class="cls-1" d="m281.38,15.85v28.7c0,2.83-1.43,4.24-4.3,4.24l-14.39-.03c-8.6,0-12.9-4.4-12.9-13.19V15.79c0-2.87,1.43-4.3,4.3-4.3s4.3,1.45,4.3,4.36v19.9c0,2.94,1.46,4.41,4.39,4.41h10.01V15.85c0-2.9,1.46-4.36,4.39-4.36s4.21,1.45,4.21,4.36Z"/>
          <path class="cls-1" d="m318.71,44.61c0,2.83-1.43,4.24-4.3,4.24h-14.39c-8.6,0-12.9-4.4-12.9-13.19V15.88c0-2.87,1.43-4.3,4.3-4.3h22.76c3-.02,4.5,1.4,4.5,4.27-.02,2.79-1.48,4.22-4.39,4.27l-18.58-.03v5.73l12.87-.06c2.91.04,4.36,1.52,4.36,4.44.02,2.79-1.41,4.19-4.27,4.19l-12.96.03v1.43c0,2.92,1.46,4.39,4.39,4.39l14.39.03c2.81,0,4.21,1.44,4.21,4.33Z"/>
          <path class="cls-1" d="m327.42,11.37c2.91,0,4.36,1.46,4.36,4.39v24.38c10.42,0,16.97-.89,16.97,4.19,0,5.69-5.28,4.41-16.97,4.41l-4.3.06c-2.87-.04-4.3-1.48-4.3-4.33V15.76c0-2.92,1.41-4.39,4.24-4.39Z"/>
          <path class="cls-1" d="m150.81,96.06c-2.92,0-4.39-1.45-4.39-4.36v-7.14l-14.25-.03-.03,7.17c0,2.91-1.43,4.36-4.3,4.36s-4.3-1.43-4.3-4.3v-19.78c0-8.79,4.3-13.19,12.9-13.19l14.28.03c2.87,0,4.3,1.41,4.3,4.24v28.64c0,2.91-1.41,4.36-4.21,4.36Zm-4.39-20.16v-8.51h-9.89c-2.92,0-4.39,1.47-4.39,4.42v4.1h14.28Z"/>
          <path class="cls-1" d="m196.72,58.78c8.6,0,12.9,4.4,12.9,13.19v19.78c0,2.87-1.43,4.3-4.3,4.3s-4.3-1.45-4.3-4.36v-19.9c0-2.94-1.46-4.42-4.39-4.42h-7.14l.06,24.37c0,2.87-1.43,4.3-4.3,4.3s-4.3-1.45-4.3-4.36v-19.9c0-2.94-1.45-4.42-4.36-4.42h-7.11v24.26c0,2.91-1.45,4.36-4.36,4.36s-4.24-1.45-4.24-4.36v-28.59c0-2.83,1.46-4.27,4.39-4.33l31.45.06Z"/>
          <path class="cls-1" d="m242.62,96.06c-2.92,0-4.39-1.45-4.39-4.36v-7.14l-14.25-.03-.03,7.17c0,2.91-1.43,4.36-4.3,4.36s-4.3-1.43-4.3-4.3v-19.78c0-8.79,4.3-13.19,12.9-13.19l14.28.03c2.87,0,4.3,1.41,4.3,4.24v28.64c0,2.91-1.41,4.36-4.21,4.36Zm-4.39-20.16v-8.51h-9.89c-2.92,0-4.39,1.47-4.39,4.42v4.1h14.28Z"/>
          <path class="cls-1" d="m277.14,74.55c-2.92,0-4.39-1.45-4.39-4.36v-2.81h-7.08c-2.92,0-4.39,1.47-4.39,4.42v19.9c0,2.91-1.43,4.36-4.3,4.36s-4.3-1.43-4.3-4.3v-19.78c0-8.79,4.3-13.19,12.9-13.19l11.47.03c2.87,0,4.3,1.41,4.3,4.24v7.14c0,2.91-1.41,4.36-4.21,4.36Z"/>
          <path class="cls-1" d="m300.05,58.73h5.71c8.64,0,12.96,4.31,12.96,12.93v11.15c0,8.79-4.3,13.19-12.9,13.19h-5.88c-8.54,0-12.82-4.3-12.82-12.9v-11.41c0-8.64,4.31-12.96,12.93-12.96Zm-.09,8.66c-2.83,0-4.24,1.42-4.24,4.27v11.33c0,2.94,1.41,4.42,4.24,4.42h5.79c2.91,0,4.36-1.47,4.36-4.42v-11.44c0-2.77-1.45-4.16-4.36-4.16h-5.79Z"/>
        </g>
      </g>
      <path class="cls-1" d="m65.23,20.28h-23.01c-12.47,0-22.58,10.11-22.58,22.58v3.11c0,1.11.08,2.19.23,3.26,1.18,8.18,6.75,14.94,14.25,17.82,2.51.97,5.24,1.5,8.1,1.5h23.04c2.71,0,5.07-2.04,5.24-4.74.19-2.96-2.15-5.42-5.07-5.42h-23.22c-1.71,0-3.33-.35-4.81-.97-4.46-1.88-7.61-6.3-7.61-11.45v-3.11c0-.95.11-1.86.31-2.75,1.25-5.53,6.2-9.67,12.11-9.67h23.01c3.57,0,6.79,1.52,9.06,3.94,1.52,1.63,3.94,2.04,5.94,1.05h0c3.05-1.52,3.79-5.55,1.45-8.04-4.12-4.38-9.96-7.11-16.45-7.11Z"/>
      <path class="cls-1" d="m87.57,58.65c-1.18-8.15-6.71-14.89-14.16-17.79-2.54-.99-5.3-1.53-8.18-1.53h-23.22c-2.81,0-5.08,2.27-5.08,5.08h0c0,2.81,2.27,5.08,5.08,5.08h23.22c1.71,0,3.33.35,4.81.97,4.46,1.88,7.61,6.3,7.61,11.45v1.84c0,1.49-.26,2.91-.74,4.24-1.74,4.77-6.31,8.18-11.67,8.18h-23.01c-3.12,0-5.98-1.16-8.16-3.07-1.67-1.46-4.06-1.71-5.94-.54l-.26.16c-2.76,1.72-3.15,5.63-.73,7.81,4,3.6,9.29,5.79,15.09,5.79h23.01c12.47,0,22.58-10.11,22.58-22.58v-1.84c0-1.11-.08-2.19-.23-3.26Z"/>
    </g>
  </g>
</svg>