<svg width="384" height="416" viewBox="0 0 384 416" fill="none" xmlns="http://www.w3.org/2000/svg">
<path d="M191.906 0C186.066 0 180.227 1.4325 175.188 4.3125L16.625 95.8438C6.385 101.764 0 112.972 0 124.812V290.875C0 302.875 6.385 313.924 16.625 319.844L58.25 343.844C78.41 353.764 85.5988 353.75 94.7188 353.75C124.639 353.75 141.75 335.673 141.75 304.312V132.969C141.75 130.409 139.685 128.312 137.125 128.312H117.125C114.405 128.312 112.469 130.409 112.469 132.969V304.156C112.469 318.236 97.9263 331.993 74.4062 320.312L30.875 295.188C29.275 294.387 28.3125 292.635 28.3125 290.875V124.969C28.3125 123.049 29.275 121.429 30.875 120.469L189.438 28.9688C190.878 28.0088 192.806 28.0088 194.406 28.9688L352.969 120.469C354.569 121.429 355.531 123.053 355.531 124.812V290.875C355.531 292.635 354.565 294.387 353.125 295.188L194.406 386.875C192.966 387.675 190.878 387.675 189.438 386.875L148.625 362.719C147.505 361.919 145.933 361.766 144.812 362.406C133.453 368.806 131.373 369.601 120.812 373.281C118.253 374.081 114.25 375.676 122.25 380.156L175.188 411.531C180.307 414.411 186.084 416 191.844 416C197.764 416 203.505 414.411 208.625 411.531L367.375 319.844C377.615 313.924 384 302.875 384 290.875V124.969C384 112.969 377.615 101.92 367.375 96L208.625 4.3125C203.585 1.4325 197.746 0 191.906 0ZM234.562 128.094C189.283 128.094 162.25 147.281 162.25 179.281C162.25 214.001 189.105 223.586 232.625 227.906C284.625 233.026 288.625 240.729 288.625 250.969C288.625 268.569 274.409 276.094 240.969 276.094C198.889 276.094 189.602 265.519 186.562 244.719C186.243 242.479 184.334 240.875 182.094 240.875H161.438C158.878 240.875 156.969 242.975 156.969 245.375C156.969 272.095 171.529 303.906 240.969 303.906C291.209 303.906 320 284.091 320 249.531C320 215.291 296.796 206.154 248.156 199.594C198.716 193.194 193.75 189.833 193.75 178.312C193.75 168.712 198.083 156.094 234.562 156.094C267.042 156.094 279.196 163.111 284.156 185.031C284.636 187.111 286.385 188.719 288.625 188.719H309.281C310.561 188.719 311.665 188.085 312.625 187.125C313.425 186.325 313.91 185.034 313.75 183.594C310.55 145.834 285.443 128.094 234.562 128.094Z" fill="black"/>
</svg>
